<svg id="GROUND" xmlns="http://www.w3.org/2000/svg" viewBox="0 0 1600 1400"><defs><style>.cls-1{fill:#262424;}.cls-2{fill:#de9244;}.cls-3{fill:#fff;}.cls-4{fill:#88c0c2;}</style></defs><title>Featured products</title><path class="cls-1" d="M726.78,1305.76H611.65a3,3,0,1,1,0-6H726.78A3,3,0,0,1,726.78,1305.76Z"/><path class="cls-1" d="M1027.7,1305.76H775.87a3,3,0,1,1,0-6H1027.7A3,3,0,0,1,1027.7,1305.76Z"/><path class="cls-1" d="M1202,1305.76h-142.8a3,3,0,0,1,0-6H1202A3,3,0,0,1,1202,1305.76Z"/><path class="cls-1" d="M1035.46,1335.88H812a3,3,0,0,1,0-6h223.51A3,3,0,0,1,1035.46,1335.88Z"/><path class="cls-1" d="M762,1335.88H695a3,3,0,0,1,0-6h67A3,3,0,1,1,762,1335.88Z"/><path class="cls-1" d="M1127.86,1335.88h-28.68a3,3,0,0,1,0-6h28.68A3,3,0,0,1,1127.86,1335.88Z"/><path class="cls-2" d="M614.81,1216.46c-5.24,4.45-16.25,8.28-29.82,9a88.09,88.09,0,0,1-23.69-2c-18.45-4.14-38.1-14.76-53.43-36.21-35-49-79.42-57.16-79.42-57.16s32.24-28.67,78.54-32.26h0a121.62,121.62,0,0,1,56.52,9.17c0.49,0.2,1,.4,1.44.61C637.64,1138.8,614.81,1216.46,614.81,1216.46Z"/><path class="cls-3" d="M585,1225.42a88.09,88.09,0,0,1-23.69-2c-14.91-16.8-28.65-39.82-23.41-64.35,7.13-33.33-15.53-52.52-30.88-61.27a121.62,121.62,0,0,1,56.52,9.17c0.49,0.2,1,.4,1.44.61,9.59,14.08,9.22,34.27-1.65,56.49C551.33,1188.54,570,1211.8,585,1225.42Z"/><path class="cls-2" d="M636.69,1117.35a179.93,179.93,0,0,1-24.75-29.48,109.78,109.78,0,0,1-13.52-28.15c-10.06-33,1.34-62.22,19.51-88.07,28.14-40,55.09-88.17,55.09-88.17S698.85,921.86,709,975q1.46,7.65,2.45,15.7c0.39,3.19.7,6.4,1,9.67C718.19,1077.2,636.69,1117.35,636.69,1117.35Z"/><path class="cls-3" d="M711.41,990.74c-16.43-.55-39.55,5.53-42.2,43.22-3.24,46-35.46,55.77-57.27,53.9a109.78,109.78,0,0,1-13.52-28.15c10.64,2.64,41,5.88,50.79-39.3C658.52,977.63,687.76,971,709,975Q710.42,982.7,711.41,990.74Z"/><path class="cls-3" d="M626.69,998.53c-19.74,12.39-18.87,39.9,0,28.77S644.61,987.27,626.69,998.53Z"/><path class="cls-2" d="M797.41,1172.69a73.39,73.39,0,0,1-18.21,26.93h0c-10.46,9.94-23.09,16.78-35.09,21.49a158.84,158.84,0,0,1-42.36,10s-43.36-31.27-16.67-90.68c7.63-17,20.07-31.35,34-43.22a213.53,213.53,0,0,1,31.37-22,265.08,265.08,0,0,1,47-21.67S818,1119.22,797.41,1172.69Z"/><path class="cls-3" d="M778.44,1097.4c-18.89,4.24-6.9,50,6.55,47.46S793,1094.12,778.44,1097.4Z"/><path class="cls-3" d="M779.2,1199.62h0c-10.46,9.94-23.09,16.78-35.09,21.49,6.27-19.06,7.7-42.11-17.35-51.65-28.49-10.87-19.07-46.54-7.72-72.2a213.53,213.53,0,0,1,31.37-22c-14.71,29.7-15.92,65,13.87,86.24C778.28,1171.46,781.12,1185.71,779.2,1199.62Z"/><path class="cls-3" d="M691.72,1302.76H677.55s16.68-113.5,86.71-192.29C764.26,1110.47,708.61,1191.14,691.72,1302.76Z"/><path class="cls-1" d="M691.72,1305.76H677.55a3,3,0,0,1-3-3.44c0-.29,4.36-29.08,17.22-67.12,11.88-35.14,33.71-85.65,70.22-126.73a3,3,0,0,1,4.71,3.7c-0.55.8-55.47,81.44-72,191A3,3,0,0,1,691.72,1305.76Zm-10.63-6h8.06c9.74-61.92,31.44-114.53,48.61-148.75C698.12,1214,684,1283.67,681.1,1299.76Z"/><path class="cls-3" d="M669.21,1302.76H651.7s-28.77-112.29-143.83-169.18C507.87,1133.59,614.18,1157.37,669.21,1302.76Z"/><path class="cls-1" d="M669.21,1305.76H651.7a3,3,0,0,1-2.91-2.25c-0.07-.28-7.39-28.2-28.53-62.62-19.47-31.7-55-75.58-113.72-104.61a3,3,0,0,1,2-5.62c1.11,0.25,27.56,6.36,61.13,30.56,30.86,22.25,73.67,64.68,102.36,140.48A3,3,0,0,1,669.21,1305.76Zm-15.23-6h10.86c-28.13-71.86-69.05-112.31-98.69-133.68-6.16-4.44-12.09-8.26-17.66-11.53a290.11,290.11,0,0,1,77,83.38C643.82,1267.83,651.81,1292.36,654,1299.76Z"/><path class="cls-3" d="M663.37,957.28s-75,182,5.84,345.48h15.84S603.34,1172.84,663.37,957.28Z"/><path class="cls-1" d="M685.05,1305.76H669.21a3,3,0,0,1-2.69-1.67c-18.6-37.62-30.49-79.33-35.33-124-3.86-35.67-3.26-73.29,1.79-111.81,8.6-65.56,27.42-111.71,27.61-112.17a3,3,0,0,1,5.66,1.95c-30.8,110.6-23.36,198-11.7,251.82,12.64,58.33,32.83,90.94,33,91.26A3,3,0,0,1,685.05,1305.76Zm-14-6h8.77c-6-10.94-20.81-41-31.09-88.27a474.35,474.35,0,0,1-10.33-109.35,540.75,540.75,0,0,1,3.9-55.21c-1.25,7.14-2.4,14.59-3.42,22.32C631.16,1128.56,630.49,1216.52,671.08,1299.76Z"/><polygon class="cls-3" points="847.7 1120.91 848.57 1176.96 875.64 1187.17 882.37 1120.91 847.7 1120.91"/><path class="cls-1" d="M875.64,1190.17a3,3,0,0,1-1.06-.19l-27.07-10.21a3,3,0,0,1-1.94-2.76l-0.87-56a3,3,0,0,1,3-3h34.67a3,3,0,0,1,3,3.3l-6.73,66.26A3,3,0,0,1,875.64,1190.17Zm-24.11-15.3,21.51,8.12,6-59.08H850.75Z"/><path class="cls-4" d="M823.54,659.49l10.07,469,67,5s43.74-365.86,47.3-382.24,4.4-53.27,1.08-90.34C942.7,590.8,823.54,577.56,823.54,659.49Z"/><path class="cls-1" d="M891,1109.92l-0.31,0a3,3,0,0,1-2.68-3.29c0.26-2.55,26-255.56,40.88-345a3,3,0,0,1,5.92,1C920,851.86,894.24,1104.68,894,1107.23A3,3,0,0,1,891,1109.92Z"/><ellipse class="cls-3" cx="865.04" cy="925.93" rx="37.9" ry="28.81" transform="matrix(0.02, -1, 1, 0.02, -77.65, 1772.67)"/><path class="cls-1" d="M897,1122.72h-0.26l-55.1-4.75a3,3,0,0,1,.52-6l55.1,4.75A3,3,0,0,1,897,1122.72Z"/><path class="cls-4" d="M785,1289.58v13.18H885.36s0.33-6.88.64-18.45c0.63-22.76,1.23-63.7-.64-106l-47.53-5.63s-11.88,46.41-36.35,82.56c-2.54,3.75-5.22,7.4-8,10.87A37.26,37.26,0,0,0,785,1289.58Z"/><path class="cls-1" d="M837.52,1255.73a3,3,0,0,1-2.67-4.37c17.47-34,27.18-71.54,27.28-71.91a3,3,0,1,1,5.81,1.49c-0.1.38-10,38.56-27.75,73.17A3,3,0,0,1,837.52,1255.73Z"/><ellipse class="cls-3" cx="869.47" cy="1242.42" rx="8.91" ry="16.1"/><path class="cls-1" d="M869.47,1261.52c-6.68,0-11.91-8.39-11.91-19.1s5.23-19.1,11.91-19.1,11.91,8.39,11.91,19.1S876.15,1261.52,869.47,1261.52Zm0-32.21c-2.73,0-5.91,5.72-5.91,13.1s3.18,13.1,5.91,13.1,5.91-5.72,5.91-13.1S872.2,1229.31,869.47,1229.31Z"/><path class="cls-3" d="M785,1289.58v13.18H885.36s0.33-6.88.64-18.45H840s-1.45-32.67-38.53-29.07c-2.54,3.75-5.22,7.4-8,10.87A37.26,37.26,0,0,0,785,1289.58Z"/><path class="cls-1" d="M885.36,1305.76H785a3,3,0,0,1-3-3v-13.18a40.42,40.42,0,0,1,9.14-25.35c2.63-3.24,5.28-6.82,7.87-10.66a3,3,0,0,1,2.19-1.3c12.63-1.22,22.78,1.41,30.19,7.83,8,7,10.54,16.5,11.31,21.22H886a3,3,0,0,1,3,3.08c-0.31,11.47-.64,18.44-0.64,18.51A3,3,0,0,1,885.36,1305.76Zm-97.37-6h94.49c0.1-2.59.26-6.86,0.43-12.45H840a3,3,0,0,1-3-2.87c0-.11-0.7-12.16-9.62-19.86-5.85-5-14-7.23-24.24-6.47-2.43,3.53-4.91,6.86-7.38,9.89a34.4,34.4,0,0,0-7.8,21.57v10.18Z"/><polygon class="cls-3" points="1105.88 1120.91 1112.06 1176.96 1084.98 1187.17 1071.21 1120.91 1105.88 1120.91"/><path class="cls-1" d="M1085,1190.17a3,3,0,0,1-2.94-2.39l-13.77-66.26a3,3,0,0,1,2.94-3.61h34.67a3,3,0,0,1,3,2.67l6.17,56a3,3,0,0,1-1.92,3.13L1086,1190A3,3,0,0,1,1085,1190.17Zm-10.09-66.26,12.31,59.21,21.61-8.15-5.62-51.06h-28.3Z"/><path class="cls-4" d="M1078.41,659.49l48.61,469-67,5s-110.26-355-113.82-371.41-0.56-64-.58-101.17C945.61,585.19,1078.41,577.56,1078.41,659.49Z"/><path class="cls-1" d="M942.69,753.48a3,3,0,0,1-1.26-.28l-6-2.79A23.71,23.71,0,0,1,921.77,729V668a3,3,0,0,1,6,0V729A17.69,17.69,0,0,0,938,745l6,2.79A3,3,0,0,1,942.69,753.48Z"/><path class="cls-1" d="M944.48,758.06a3,3,0,0,1-3-3v-88.8a3,3,0,0,1,6,0v88.8A3,3,0,0,1,944.48,758.06Z"/><path class="cls-1" d="M1066.93,1109.92a3,3,0,0,1-2.88-2.16C1022.85,966,957.93,765,957.28,763a3,3,0,0,1,5.71-1.85c0.65,2,65.59,203.11,106.82,344.92A3,3,0,0,1,1066.93,1109.92Z"/><ellipse class="cls-3" cx="1059.16" cy="925.93" rx="28.81" ry="37.9" transform="translate(-57.4 70.09) rotate(-3.69)"/><path class="cls-1" d="M1063.61,1122.72a3,3,0,0,1-.25-6l55.1-4.75a3,3,0,1,1,.52,6l-55.1,4.75h-0.26Z"/><path class="cls-4" d="M1175.64,1289.58v13.18H1075.27s-0.33-6.88-.64-18.45c-0.63-22.76-1.23-63.7.64-106l47.53-5.63s11.88,46.41,36.35,82.56c2.54,3.75,5.22,7.4,8,10.87A37.26,37.26,0,0,1,1175.64,1289.58Z"/><path class="cls-1" d="M1123.11,1255.73a3,3,0,0,1-2.67-1.63c-17.77-34.61-27.66-72.78-27.75-73.17a3,3,0,0,1,5.81-1.49c0.1,0.38,9.82,37.93,27.28,71.92A3,3,0,0,1,1123.11,1255.73Z"/><ellipse class="cls-3" cx="1091.16" cy="1242.42" rx="8.91" ry="16.1"/><path class="cls-1" d="M1091.16,1261.52c-6.68,0-11.91-8.39-11.91-19.1s5.23-19.1,11.91-19.1,11.91,8.39,11.91,19.1S1097.84,1261.52,1091.16,1261.52Zm0-32.21c-2.41,0-5.91,5.1-5.91,13.1s3.5,13.1,5.91,13.1c2.73,0,5.91-5.72,5.91-13.1S1093.89,1229.31,1091.16,1229.31Z"/><path class="cls-3" d="M1175.64,1289.58v13.18H1075.27s-0.33-6.88-.64-18.45h46s1.45-32.67,38.53-29.07c2.54,3.75,5.22,7.4,8,10.87A37.26,37.26,0,0,1,1175.64,1289.58Z"/><path class="cls-1" d="M1175.64,1305.76H1075.27a3,3,0,0,1-3-2.86c0-.07-0.33-7-0.64-18.51a3,3,0,0,1,3-3.08h43.31c0.76-4.71,3.26-14.23,11.3-21.22,7.4-6.42,17.56-9.06,30.19-7.83a3,3,0,0,1,2.19,1.3c2.59,3.83,5.24,7.42,7.87,10.66a40.42,40.42,0,0,1,9.14,25.35v13.18A3,3,0,0,1,1175.64,1305.76Zm-97.49-6h94.49v-10.18a34.39,34.39,0,0,0-7.8-21.57c-2.47-3-4.94-6.36-7.37-9.89-10.24-.75-18.39,1.42-24.24,6.47-8.92,7.7-9.62,19.75-9.62,19.87a3,3,0,0,1-3,2.86h-42.89C1077.88,1292.9,1078,1297.17,1078.14,1299.76Z"/><path class="cls-2" d="M857.23,334.41C829,347.13,755.93,538.28,767,574.55s64.83,25,80.46-39.4S912.68,309.4,857.23,334.41Z"/><path class="cls-2" d="M1088.61,352.49V681.79s-8.87,1.23-24.18,2.64V648a5.3,5.3,0,0,0-5.32-5.32,5.31,5.31,0,0,0-5.32,5.32v37.33c-50.28,4.09-147.09,8-237-10.76,0,0,11.47-265.77,40.43-340.19,0,0,50.87-29,109.24-27.85S1088.61,352.49,1088.61,352.49Z"/><path class="cls-1" d="M821.84,591.18h-0.21a3,3,0,0,1-2.79-3.2c5.61-80.67,15.57-188,31.13-241.33a3,3,0,0,1,5.76,1.68c-15.42,52.8-25.32,159.69-30.91,240.06A3,3,0,0,1,821.84,591.18Z"/><path class="cls-1" d="M976.63,675.93a1209.56,1209.56,0,0,1-148.3-9.54,2.88,2.88,0,0,1,.8-5.71c1.08,0.15,109.32,15.07,211,7.19a2.88,2.88,0,1,1,.45,5.74C1019.19,675.28,997.52,675.93,976.63,675.93Z"/><path class="cls-3" d="M1009.68,323.42a51.38,51.38,0,0,1-32.41,29.07c-2.42-13.26-9.07-29.94-9.07-29.94-7.4,10.18-11.31,23.64-12.27,29.79-23.95-6.58-26.68-29.61-26.68-29.61,2.92-23.07,22.77-40.44,39.79-39.86C1006.67,284.15,1009.68,323.42,1009.68,323.42Z"/><path class="cls-1" d="M977.27,355.49a3,3,0,0,1-3-2.46,165.21,165.21,0,0,0-6.84-23.82,77.15,77.15,0,0,0-8.59,23.6,3,3,0,0,1-3.76,2.43c-25.6-7-28.74-31.12-28.86-32.14a3.05,3.05,0,0,1,0-.73c3.27-25.78,25.22-43.1,42.87-42.48,39.86,1.35,43.49,42.9,43.53,43.31a3,3,0,0,1-.24,1.41,54.61,54.61,0,0,1-34.27,30.75A3,3,0,0,1,977.27,355.49Zm-9.07-35.94,0.37,0a3,3,0,0,1,2.41,1.86,204.66,204.66,0,0,1,8.54,27.08,48.34,48.34,0,0,0,27.09-25.59c-0.61-5.27-5.51-36-37.67-37.06-14.95-.52-33.71,15.12-36.66,36.85,0.42,2.67,3.7,19.24,21.36,25.74,1.6-6.95,5.41-18.41,12.13-27.67A3,3,0,0,1,968.2,319.55Z"/><path class="cls-2" d="M1111.33,457.61c-2.3,32.94-6.07,75.18-14.68,103-5.47,17.58-12.86,29.39-23.05,29.39-8.42,0-17.08-2.34-25.64-6.22-36.73-16.67-71.34-61.73-75.14-71.11-4.69-11.57,10-34.71,23.45-36s41.59,18.76,41.59,18.76,21.57-95.05,26.89-113.5,23.86-29.45,23.86-29.45C1112,364.84,1115.08,403.83,1111.33,457.61Z"/><path class="cls-1" d="M1071.31,522.2a3,3,0,0,1-2.55-1.41c-0.13-.2-7.11-10.9-25.12-17.87a3,3,0,0,1,.83-5.79,77.89,77.89,0,0,1,33,5.84,3,3,0,1,1-2.26,5.56,75,75,0,0,0-16-4.5c10.27,6.58,14.49,13.21,14.72,13.59A3,3,0,0,1,1071.31,522.2Z"/><path class="cls-3" d="M1096.65,560.58c-5.47,17.58-12.86,29.39-23.05,29.39-8.42,0-17.08-2.34-25.64-6.22a29.26,29.26,0,0,1-.18-3.16A28.53,28.53,0,0,1,1096.65,560.58Z"/><path class="cls-1" d="M1073.59,593c-24.81,0-50.34-19.11-67.4-35.14-18.3-17.2-33.39-37.26-36.15-44.07-2.45-6.05-.77-14.85,4.51-23.53,4.54-7.46,12.55-15.72,21.44-16.54,11.58-1.08,31.49,11.17,39.92,16.78,4.32-19,21.26-93.07,26-109.36,2.32-8.05,7.42-16,14.74-23a3,3,0,1,1,4.14,4.34c-4.57,4.36-10.55,11.42-13.11,20.3-5.23,18.16-26.63,112.38-26.85,113.33a3,3,0,0,1-4.66,1.78c-7.58-5.39-29.46-19.16-39.57-18.22-5.5.51-12.13,5.88-16.87,13.69-4.17,6.85-5.77,14-4.08,18.15,4.62,11.41,55.72,75.46,98,75.46h0a3,3,0,0,1,0,6h0Z"/><path class="cls-2" d="M1004.71,482.31l-22.83-17.82s-20.95,1.56-25.33,28.14l24.7,20.95S1002.83,508.26,1004.71,482.31Z"/><path class="cls-1" d="M981.26,516.57a3,3,0,0,1-1.94-.71l-24.7-20.95a3,3,0,0,1-1-2.78c4.71-28.57,27.83-30.63,28.06-30.64a3,3,0,0,1,2.07.63l22.83,17.82a3,3,0,0,1,1.15,2.58c-2,27.81-25.49,33.91-25.73,34A3,3,0,0,1,981.26,516.57Zm-21.44-25.12,22.12,18.76c4.4-1.58,17.6-7.86,19.64-26.55l-20.54-16C977.1,468.34,963.69,472.16,959.82,491.46Z"/><path class="cls-3" d="M980.43,467.82s-41.06-31.48-43.15-31.48-65,19.8-66.29,20.43-2.5,5.42,1.46,7.5,36.69-.21,36.69-0.21a101.4,101.4,0,0,0,13.55,14.8c7.3,6.25,18.14,9.8,25.43,2.29,0,0,6,12.92,17.51,9.17S980.43,467.82,980.43,467.82Z"/><path class="cls-1" d="M961.55,494c-6.48,0-11.38-4.3-14.22-8.31-8.26,5.47-19,2-26.59-4.56a101.3,101.3,0,0,1-13-14c-10.83.73-32.63,1.89-36.67-.24a7.75,7.75,0,0,1-4.29-7.14c0-2.13.92-4.73,2.88-5.71,0.42-.21,64.47-20.75,67.63-20.75,1.24,0,3.1,0,45,32.1a3,3,0,0,1,1.13,2.91c-0.15.84-3.8,20.58-16.82,24.84A16,16,0,0,1,961.55,494Zm-13.43-15.85a3,3,0,0,1,2.72,1.73c0.2,0.42,5.09,10.46,13.86,7.59,7.13-2.33,11-12.85,12.4-18.43-17.18-13.14-36.07-27.21-40.16-29.58-7.09,1.77-57.22,17.47-64.1,19.82a2.41,2.41,0,0,0,0,1.19,1.82,1.82,0,0,0,1,1.14c2.54,1,20.21.5,35.08-.55a3,3,0,0,1,2.63,1.22,99,99,0,0,0,13.08,14.29c4.81,4.12,14.72,9.29,21.33,2.48A3,3,0,0,1,948.12,478.16Zm-11.72-39h0Z"/><path class="cls-3" d="M991.08,236.37l-0.61,23.14-1,39.58c-13.31,9.3-26.26,10.29-38.75.91l1.83-18.39,2.77-27.85Z"/><path class="cls-1" d="M968.74,309.58q-10.28,0-19.87-7.19a3,3,0,0,1-1.18-2.7l4.6-46.23a3,3,0,0,1,1.67-2.4l35.81-17.39a3,3,0,0,1,4.31,2.78l-1.66,62.71a3,3,0,0,1-1.28,2.38C983.47,306.9,976,309.58,968.74,309.58Zm-14.92-11c10.21,7,20.92,6.62,32.64-1.1l1.49-56.24-29.86,14.5Z"/><path class="cls-1" d="M978.71,242.37c-0.18,10.45.78,46-27.27,49.89l3.83-38.5Z"/><path class="cls-3" d="M920.9,239.21c2.53,19,8.79,41.54,31.5,37.26,27-5.09,43.92-24.84,43.34-50.66s-13-40-43.78-36a47.46,47.46,0,0,0-7.74,1.64c-17.64,5.37-26.11,20.4-24.44,37.67C920.07,232.18,920.41,235.63,920.9,239.21Z"/><path class="cls-1" d="M947,280a22.5,22.5,0,0,1-13.87-4.46c-11.87-8.92-14.69-28.51-16.39-46.18-2.17-22.51,11.81-39.62,34.79-42.57a3,3,0,1,1,.76,6c-19.84,2.55-31.45,16.7-29.58,36,1.14,11.84,3.27,33.89,14,42,4,3,9,3.94,15.06,2.78,9.94-1.87,18.44-5.76,25.26-11.55a3,3,0,1,1,3.88,4.57,60.47,60.47,0,0,1-28,12.88A32,32,0,0,1,947,280Z"/><path class="cls-1" d="M1004,230.4a79.36,79.36,0,0,1-8.44,10.89l-13.66,1.29L978.64,233s-8.7-.11-10.68-5.91a3.4,3.4,0,0,1-.13-0.41c-0.52-1.9-2.58-10.41-1.71-23.76,0,0-20.58,9.89-31.9,11.45-4.07.57-8.9-.85-13.41-2.9-9-4.11-17.27-18.35-16-28.2l0-.19c2-14.44,9.78-4.73,9.78-4.73s1.77-11.63,9-12.7,12.17,9.47,12.17,9.47A114.13,114.13,0,0,1,978.1,172c28.14,3.37,21.79,22.88,21.79,22.88S1020.7,200.81,1004,230.4Z"/><path class="cls-3" d="M984.8,241c-1.52-10.75,5.74-21,16.48-22.6a18.08,18.08,0,0,1,6.84.27c13.48,3.18,11,34.4-21.8,33.08Z"/><path class="cls-1" d="M988.28,254.8q-1,0-2.08,0a3,3,0,1,1,.24-6c17.6,0.71,25.12-8.41,26.21-16.44,0.63-4.57-1-9.72-5.23-10.72a15.18,15.18,0,0,0-5.71-.22,16.88,16.88,0,0,0-13.94,19.21,3,3,0,0,1-5.94.84c-1.77-12.52,6.76-24.18,19-26a21.16,21.16,0,0,1,8,.31c6.83,1.61,10.95,8.92,9.79,17.38C1017.1,244.09,1007.16,254.8,988.28,254.8Z"/><path class="cls-3" d="M760.82,574.75l11.45-23.33a3.9,3.9,0,0,1,4.51-2.05l0.26,0.07a3.9,3.9,0,0,1,2.76,4.8l-5.57,20.52a3.12,3.12,0,0,0,2.35,3.87h0a3.12,3.12,0,0,0,3.59-2l7.68-21.2a4.64,4.64,0,0,1,5.41-2.94l0.64,0.15a4.64,4.64,0,0,1,3.53,5.28l-3.66,21.93a2.63,2.63,0,0,0,1.92,3h0a2.63,2.63,0,0,0,3.2-1.77l6.71-21.95a4.64,4.64,0,0,1,5.56-3.14h0a4.64,4.64,0,0,1,3.48,5.07l-2.85,22.82a2.54,2.54,0,0,0,2,2.8h0a2.54,2.54,0,0,0,3-1.79l5.37-19a3.9,3.9,0,0,1,4.52-2.77h0a3.9,3.9,0,0,1,3.1,4.36l-3.82,27.66a5.86,5.86,0,0,1-3.34,4.51l-3.13,1.45a5.86,5.86,0,0,1-5.56-.34h0a5.86,5.86,0,0,0-4.14-.79L804,601a5.86,5.86,0,0,1-4.6-1.1l-3.07-2.33a5.86,5.86,0,0,0-4.86-1l-7.57,1.73a5.86,5.86,0,0,1-5.19-1.33l-2.82-2.5a5.86,5.86,0,0,0-4.45-1.45l-7.67.74a5.86,5.86,0,0,1-4.95-1.95l-16.49-18.62a4.84,4.84,0,0,1,.86-7.19h0a4.84,4.84,0,0,1,5.62.07Z"/><path class="cls-1" d="M817,604.6a8.84,8.84,0,0,1-4.67-1.34,2.86,2.86,0,0,0-2-.38l-5.72,1a8.87,8.87,0,0,1-6.95-1.67l-3.07-2.33a2.85,2.85,0,0,0-2.37-.51l-7.57,1.73a8.87,8.87,0,0,1-7.85-2l-2.82-2.5a2.87,2.87,0,0,0-2.17-.71l-7.67.74a8.89,8.89,0,0,1-7.48-2.95L740.11,575.1a7.84,7.84,0,0,1,10.5-11.53l9.09,6.65,9.88-20.12a6.92,6.92,0,0,1,8-3.63l0.26,0.07A6.9,6.9,0,0,1,782.7,555l-5.57,20.52,0.09,0.15a0.12,0.12,0,0,0,.14-0.08l7.68-21.2a7.65,7.65,0,0,1,8.91-4.84l0.65,0.15a7.65,7.65,0,0,1,5.8,8.69l-2.74,16.42,5.07-16.6a7.64,7.64,0,0,1,14.88,3.18l-2.09,16.72,3.7-13.1a6.9,6.9,0,0,1,13.48,2.82l-3.82,27.66a8.83,8.83,0,0,1-5,6.82l-3.12,1.45A8.86,8.86,0,0,1,817,604.6Zm-6.17-7.77a8.84,8.84,0,0,1,4.67,1.33,2.85,2.85,0,0,0,2.71.16l3.13-1.45a2.85,2.85,0,0,0,1.63-2.2L826.75,567a0.9,0.9,0,0,0-1.76-.37l-5.37,19a5.54,5.54,0,0,1-10.82-2.19l2.85-22.82a1.64,1.64,0,0,0-3.19-.68l-6.71,21.95a5.63,5.63,0,0,1-10.94-2.57l3.66-21.93a1.64,1.64,0,0,0-1.24-1.86l-0.65-.15a1.63,1.63,0,0,0-1.91,1L783,577.66A6.12,6.12,0,0,1,771.34,574l5.57-20.52a0.9,0.9,0,0,0-.64-1.11l-0.26-.07a0.9,0.9,0,0,0-1,.48l-11.45,23.33a3,3,0,0,1-4.46,1.1l-12-8.76a1.84,1.84,0,0,0-2.14,0,1.84,1.84,0,0,0-.33,2.73l16.49,18.62a2.86,2.86,0,0,0,2.42,1l7.67-.74a8.89,8.89,0,0,1,6.73,2.19l2.82,2.5a2.87,2.87,0,0,0,2.54.65l7.57-1.73a8.84,8.84,0,0,1,7.34,1.59l3.07,2.33a2.87,2.87,0,0,0,2.24.54l5.72-1A8.92,8.92,0,0,1,810.79,596.84Z"/><rect class="cls-3" x="730.91" y="462.4" width="60.03" height="81.3"/><path class="cls-1" d="M790.95,546.69h-60a3,3,0,0,1-3-3V462.4a3,3,0,0,1,3-3h60a3,3,0,0,1,3,3v81.29A3,3,0,0,1,790.95,546.69Zm-57-6h54V465.4h-54v75.29Z"/><polygon class="cls-3" points="767.81 439.16 707.77 439.16 730.91 462.4 790.95 462.4 767.81 439.16"/><path class="cls-1" d="M790.95,465.4h-60a3,3,0,0,1-2.13-.88l-23.14-23.24a3,3,0,0,1,2.13-5.12h60a3,3,0,0,1,2.13.88l23.14,23.24A3,3,0,0,1,790.95,465.4Zm-58.79-6h51.57l-17.16-17.24H715Z"/><rect class="cls-3" x="790.95" y="462.4" width="60.03" height="81.3" transform="translate(1641.92 1006.09) rotate(-180)"/><path class="cls-1" d="M851,546.69h-60a3,3,0,0,1-3-3V462.4a3,3,0,0,1,3-3h60a3,3,0,0,1,3,3v81.29A3,3,0,0,1,851,546.69Zm-57-6h54V465.4h-54v75.29Z"/><polygon class="cls-3" points="814.08 439.16 874.12 439.16 850.98 462.4 790.95 462.4 814.08 439.16"/><path class="cls-1" d="M851,465.4h-60a3,3,0,0,1-2.13-5.12L812,437a3,3,0,0,1,2.13-.88h60a3,3,0,0,1,2.13,5.12L853.1,464.51A3,3,0,0,1,851,465.4Zm-52.81-6h51.57l17.17-17.24H815.33Z"/><path class="cls-1" d="M790.95,618A120.34,120.34,0,1,1,911.28,497.64,120.47,120.47,0,0,1,790.95,618Zm0-234.67A114.34,114.34,0,1,0,905.28,497.64,114.46,114.46,0,0,0,790.95,383.3Z"/><rect class="cls-4" x="753.83" y="172.99" width="22.05" height="39.38" rx="4.9" ry="4.9"/><path class="cls-4" d="M828.07,181.82v18.24a12.31,12.31,0,0,1-12.31,12.31H790.52a6.08,6.08,0,0,1-6.08-6.08V177.85a6.08,6.08,0,0,1,1.78-4.3l21.05-21.05a3.41,3.41,0,0,1,4.82,0h0a3.41,3.41,0,0,1,.73,3.75l-8.11,19.09h16.85A6.49,6.49,0,0,1,828.07,181.82Z"/><path class="cls-1" d="M811.76,274.25a3,3,0,0,1-.73-5.91,80.75,80.75,0,0,0-19.66-159h-0.15a80.76,80.76,0,0,0-20.09,159,3,3,0,0,1-1.49,5.81,86.76,86.76,0,0,1,21.58-170.78h0.17A86.75,86.75,0,0,1,812.5,274.16,3,3,0,0,1,811.76,274.25Z"/><path class="cls-1" d="M791.23,255.53H791.1a65.47,65.47,0,0,1,.12-130.94h0.12A65.47,65.47,0,0,1,791.23,255.53Zm0-124.94a59.47,59.47,0,0,0-.11,118.94h0.11a59.47,59.47,0,0,0,.11-118.94h-0.11Z"/><path class="cls-1" d="M790.95,342.2h0a3,3,0,0,1-3-3l0.13-68a3,3,0,0,1,3-3h0a3,3,0,0,1,3,3l-0.13,68A3,3,0,0,1,790.95,342.2Z"/><path class="cls-4" d="M563,322.9v19.53a3.1,3.1,0,0,1-5.29,2.19l-5.06-5.06L532.22,360a8.78,8.78,0,0,1-12.41,0L506.48,346.7l-17.1,17.1a8.77,8.77,0,0,1-12.41,0h0a8.77,8.77,0,0,1,0-12.41l23.3-23.3a8.77,8.77,0,0,1,12.41,0L526,341.42l14.27-14.26-4.06-4.06a3.1,3.1,0,0,1,2.19-5.29h19.53A5.08,5.08,0,0,1,563,322.9Z"/><path class="cls-1" d="M523.06,433.33A86.76,86.76,0,1,1,606.54,370a3,3,0,0,1-5.77-1.63A80.72,80.72,0,1,0,580.82,403a3,3,0,0,1,4.3,4.19A86.55,86.55,0,0,1,523.06,433.33Z"/><path class="cls-1" d="M522.91,412a65.46,65.46,0,1,1,56.81-32.72h0A65.52,65.52,0,0,1,522.91,412Zm0.21-124.92a59.47,59.47,0,1,0,51.4,89.2h0A59.45,59.45,0,0,0,523.12,287.09Zm54,90.7h0Z"/><path class="cls-1" d="M652.18,424.14a3,3,0,0,1-1.5-.4l-58.86-34a3,3,0,1,1,3-5.2l58.86,34A3,3,0,0,1,652.18,424.14Z"/><path class="cls-4" d="M526.36,682.75l-16.42,7.55a3.64,3.64,0,0,1-5.14-3.74l2.11-18a3.64,3.64,0,0,0-.94-2.9L493.7,652.43a3.64,3.64,0,0,1,2-6l17.73-3.54a3.64,3.64,0,0,0,2.46-1.79l8.85-15.76a3.64,3.64,0,0,1,6.36,0l8.85,15.76a3.64,3.64,0,0,0,2.46,1.79l17.73,3.54a3.64,3.64,0,0,1,2,6L549.8,665.72a3.64,3.64,0,0,0-.94,2.9l2.11,18a3.64,3.64,0,0,1-5.14,3.74l-16.42-7.55A3.64,3.64,0,0,0,526.36,682.75Z"/><path class="cls-1" d="M528,743.81a87.25,87.25,0,0,1-21.67-2.75,86.75,86.75,0,1,1,83-145.3,3,3,0,1,1-4.25,4.23,80.72,80.72,0,1,0,20.34,34.33,3,3,0,0,1,5.76-1.69A86.84,86.84,0,0,1,528,743.81Z"/><path class="cls-1" d="M528,722.54a65.87,65.87,0,0,1-16.37-2.08,65.47,65.47,0,1,1,72.59-96.78h0A65.51,65.51,0,0,1,528,722.54Zm-0.21-125a59.46,59.46,0,1,0,51.28,29.16h0A59.51,59.51,0,0,0,527.78,597.58Z"/><path class="cls-1" d="M597.73,618.69a3,3,0,0,1-1.53-5.58l58.49-34.63a3,3,0,1,1,3.06,5.16l-58.49,34.63A3,3,0,0,1,597.73,618.69Z"/><path class="cls-4" d="M552.94,167.55a31.84,31.84,0,0,0,16.47-16.47l4.23-9.71,4.23,9.71a31.84,31.84,0,0,0,16.47,16.47l9.71,4.23L594.34,176a31.84,31.84,0,0,0-16.47,16.47l-4.23,9.71-4.23-9.71A31.84,31.84,0,0,0,552.94,176l-9.71-4.23Z"/><path class="cls-4" d="M438.8,765.86a15,15,0,0,0,7.77-7.77l2-4.58,2,4.58a15,15,0,0,0,7.77,7.77l4.58,2-4.58,2a15,15,0,0,0-7.77,7.77l-2,4.58-2-4.58a15,15,0,0,0-7.77-7.77l-4.58-2Z"/><path class="cls-4" d="M515.12,815.77a23.75,23.75,0,0,0,12.29-12.29l3.16-7.25,3.16,7.25A23.75,23.75,0,0,0,546,815.77l7.25,3.16L546,822.08a23.75,23.75,0,0,0-12.29,12.29l-3.16,7.25-3.16-7.25a23.75,23.75,0,0,0-12.29-12.29l-7.25-3.16Z"/><path class="cls-4" d="M910.11,86.39a33.45,33.45,0,0,0,17.31-17.31l4.45-10.2,4.45,10.2a33.45,33.45,0,0,0,17.31,17.31l10.2,4.45-10.2,4.45a33.45,33.45,0,0,0-17.31,17.31l-4.45,10.2-4.45-10.2a33.45,33.45,0,0,0-17.31-17.31l-10.2-4.45Z"/><path class="cls-2" d="M463.21,115.22a52.41,52.41,0,0,0,32.34,24.48l-9.84,20.63s-29.53-3.84-41.55-35.5Z"/><path class="cls-2" d="M1089.44,188.69a52.41,52.41,0,0,0,36-18.75l14.43,17.73s-16.11,25-49.87,22.35Z"/><path class="cls-2" d="M400.76,498.14a63.08,63.08,0,0,0,31.07-37.65l24.31,12.88s-6.11,35.31-44.8,48.16Z"/><path class="cls-2" d="M734.7,862.14a63.08,63.08,0,0,0,37.78-30.9l21.34,17.35S781,882,740.54,887.15Z"/><circle class="cls-2" cx="843.73" cy="68.01" r="12.48"/><circle class="cls-2" cx="677.55" cy="292.26" r="12.48"/><circle class="cls-2" cx="669.21" cy="762.09" r="12.48"/><circle class="cls-4" cx="960.14" cy="1154.04" r="16.67"/></svg>